<svg width="30" height="30" viewBox="0 0 30 30" fill="none" xmlns="http://www.w3.org/2000/svg">
<path d="M9.73873 23.75C9.3308 23.5851 9.10552 23.5053 8.97949 23.5208C8.8246 23.5396 8.59988 23.7046 8.15043 24.0344C7.35797 24.616 6.35963 25.0338 4.8791 24.9979C4.13047 24.9798 3.75614 24.9706 3.58857 24.6863C3.42099 24.402 3.6297 24.0084 4.04712 23.2211C4.62604 22.1293 4.99284 20.8794 4.43704 19.8779C3.4798 18.4473 2.6667 16.7531 2.54788 14.9234C2.48404 13.9403 2.48404 12.9221 2.54788 11.939C2.87412 6.91519 6.83882 2.91345 11.8162 2.58416C13.5108 2.47206 15.2836 2.47183 16.9818 2.58416C21.9379 2.91205 25.89 6.88123 26.2456 11.875" stroke="white" stroke-width="1.875" stroke-linecap="round" stroke-linejoin="round"/>
<path d="M18.372 27.0589C15.2348 26.8577 12.7358 24.4122 12.5301 21.3421C12.4899 20.7412 12.4899 20.1191 12.5301 19.5182C12.7358 16.4481 15.2348 14.0026 18.372 13.8014C19.4424 13.7327 20.5599 13.7329 21.628 13.8014C24.7653 14.0026 27.2643 16.4481 27.4699 19.5182C27.51 20.1191 27.51 20.7412 27.4699 21.3421C27.3949 22.4602 26.8824 23.4956 26.2791 24.3697C25.9288 24.9817 26.16 25.7456 26.5249 26.4129C26.788 26.894 26.9195 27.1345 26.8139 27.3082C26.7082 27.4821 26.4723 27.4876 26.0004 27.4987C25.0673 27.5206 24.438 27.2654 23.9385 26.9099C23.6553 26.7084 23.5135 26.6076 23.4159 26.596C23.3183 26.5844 23.1261 26.6607 22.742 26.8134C22.3967 26.9506 21.9958 27.0354 21.628 27.0589C20.5599 27.1275 19.4424 27.1276 18.372 27.0589Z" stroke="white" stroke-width="1.875" stroke-linejoin="round"/>
</svg>
