<svg width="64" height="64" viewBox="0 0 16 16" fill="None" xmlns="http://www.w3.org/2000/svg">
  <path d="M8.66665 4.66667C8.66665 6.13943 7.47271 7.33333 5.99998 7.33333C4.52722 7.33333 3.33331 6.13943 3.33331 4.66667C3.33331 3.19391 4.52722 2 5.99998 2C7.47271 2 8.66665 3.19391 8.66665 4.66667Z" stroke="white" stroke-width="1.5"/>
  <path d="M10 7.33333C11.4727 7.33333 12.6667 6.13943 12.6667 4.66667C12.6667 3.19391 11.4727 2 10 2" stroke="white" stroke-width="1.5" stroke-linecap="round" stroke-linejoin="round"/>
  <path d="M7.33331 9.33331H4.66665C2.8257 9.33331 1.33331 10.8257 1.33331 12.6666C1.33331 13.403 1.93027 14 2.66665 14H9.33331C10.0697 14 10.6666 13.403 10.6666 12.6666C10.6666 10.8257 9.17425 9.33331 7.33331 9.33331Z" stroke="white" stroke-width="1.5" stroke-linejoin="round"/>
  <path d="M11.3333 9.33331C13.1742 9.33331 14.6666 10.8257 14.6666 12.6666C14.6666 13.403 14.0697 14 13.3333 14H12.3333" stroke="white" stroke-width="1.5" stroke-linecap="round" stroke-linejoin="round"/>
</svg>
