<svg width="38" height="48" viewBox="0 0 38 48" fill="none" xmlns="http://www.w3.org/2000/svg">
<g filter="url(#filter0_d_2_15)">
<path d="M32.0439 20.883C32.7192 19.1292 33.0909 17.2135 33.0909 15.207C33.0909 6.80843 26.5787 0 18.5455 0C10.5122 0 4 6.80843 4 15.207C4 21.1228 7.23098 26.2496 11.9487 28.7638C15.6625 30.7431 18.8009 32.9693 15.7738 35.8928C14.9185 36.7188 14.194 37.6333 14.0838 38.7999C14.0262 39.4091 14.7071 39.7157 15.2452 39.4244L17.7372 38.0755C24.1443 34.6073 29.0788 28.9364 31.6282 22.1114C31.7796 21.7062 31.9182 21.2965 32.0439 20.883Z" fill="white"/>
</g>
<defs>
<filter id="filter0_d_2_15" x="0" y="0" width="37.0909" height="47.5355" filterUnits="userSpaceOnUse" color-interpolation-filters="sRGB">
<feFlood flood-opacity="0" result="BackgroundImageFix"/>
<feColorMatrix in="SourceAlpha" type="matrix" values="0 0 0 0 0 0 0 0 0 0 0 0 0 0 0 0 0 0 127 0" result="hardAlpha"/>
<feOffset dy="4"/>
<feGaussianBlur stdDeviation="2"/>
<feComposite in2="hardAlpha" operator="out"/>
<feColorMatrix type="matrix" values="0 0 0 0 0 0 0 0 0 0 0 0 0 0 0 0 0 0 0.25 0"/>
<feBlend mode="normal" in2="BackgroundImageFix" result="effect1_dropShadow_2_15"/>
<feBlend mode="normal" in="SourceGraphic" in2="effect1_dropShadow_2_15" result="shape"/>
</filter>
</defs>
</svg>
