<svg width="24" height="24" viewBox="0 0 24 24" fill="none" xmlns="http://www.w3.org/2000/svg">
<path d="M9 17.625C9.0736 19.4769 10.6169 21.0494 12.6844 20.9988C13.1654 20.9871 13.7599 20.8194 14.9489 20.484C17.8104 19.6769 20.2944 18.3204 20.8904 15.2816C21 14.723 21 14.0944 21 12.8373V11.1627C21 9.90564 21 9.27707 20.8904 8.71848C20.2944 5.67966 17.8104 4.32317 14.9489 3.51603C13.7599 3.18065 13.1654 3.01296 12.6844 3.00119C10.6169 2.95061 9.0736 4.52308 9 6.37502" stroke="white" stroke-width="1.5" stroke-linecap="round"/>
<path d="M14 12H3M14 12C14 11.2998 12.0057 9.99153 11.5 9.5M14 12C14 12.7002 12.0057 14.0085 11.5 14.5" stroke="white" stroke-width="1.5" stroke-linecap="round" stroke-linejoin="round"/>
</svg>
